<svg width="684" height="684" viewBox="0 0 684 684" fill="none" xmlns="http://www.w3.org/2000/svg">
<circle cx="342" cy="342" r="319.5" fill="#474747" stroke="black" stroke-width="45"/>
<path d="M511.329 205.158C510.107 201.511 508.649 200.551 506.371 199.64C501.388 197.768 492.948 200.599 492.948 200.599C492.948 200.599 194.17 309.424 177.101 321.468C173.426 324.059 172.195 325.594 171.584 327.37C168.633 335.911 177.826 339.701 177.826 339.701L254.835 365.132C254.835 365.132 257.705 365.564 258.728 364.892C276.247 353.664 434.988 252.133 444.143 248.726C445.587 248.294 446.658 248.774 446.373 249.782C442.708 262.833 304.834 386.964 304.834 386.964C304.834 386.964 304.309 387.636 303.977 388.404L303.797 388.308L296.613 465.704C296.613 465.704 293.6 489.408 317.002 465.704C333.512 448.958 349.487 434.947 357.481 428.182C383.961 446.703 412.458 467.192 424.758 477.892C430.934 483.266 436.101 484.13 440.354 483.986C452.028 483.554 455.287 470.55 455.287 470.55C455.287 470.55 509.733 248.534 511.552 218.785C511.732 215.858 511.978 214.034 511.997 212.019C512.03 209.236 511.774 206.453 511.329 205.158Z" fill="white"/>
</svg>
